<mxfile host="65bd71144e">
    <diagram id="fZGqH274YplP94Wyyhnw" name="Page-1">
        <mxGraphModel dx="1910" dy="1626" grid="1" gridSize="10" guides="1" tooltips="1" connect="1" arrows="1" fold="1" page="1" pageScale="1" pageWidth="1600" pageHeight="900" math="0" shadow="0">
            <root>
                <mxCell id="0"/>
                <mxCell id="1" parent="0"/>
                <mxCell id="21" value="" style="edgeStyle=none;html=1;" edge="1" parent="1" source="10" target="20">
                    <mxGeometry relative="1" as="geometry"/>
                </mxCell>
                <mxCell id="10" value="JavaScript&lt;br&gt;提供数据" style="rounded=0;whiteSpace=wrap;html=1;fillColor=#ffe6cc;strokeColor=#d79b00;" vertex="1" parent="1">
                    <mxGeometry x="210" y="140" width="120" height="60" as="geometry"/>
                </mxCell>
                <mxCell id="11" value="" style="endArrow=classic;html=1;" edge="1" parent="1">
                    <mxGeometry width="50" height="50" relative="1" as="geometry">
                        <mxPoint x="380" y="169.5" as="sourcePoint"/>
                        <mxPoint x="500" y="170" as="targetPoint"/>
                    </mxGeometry>
                </mxCell>
                <mxCell id="13" value="顶点数据" style="edgeLabel;html=1;align=center;verticalAlign=bottom;resizable=0;points=[];" vertex="1" connectable="0" parent="11">
                    <mxGeometry relative="1" as="geometry">
                        <mxPoint as="offset"/>
                    </mxGeometry>
                </mxCell>
                <mxCell id="15" value="0,1,0&lt;br&gt;1,0,0&lt;br&gt;-1,0,0" style="rounded=1;whiteSpace=wrap;html=1;fillColor=#e1d5e7;strokeColor=#9673a6;" vertex="1" parent="1">
                    <mxGeometry x="570" y="135" width="120" height="70" as="geometry"/>
                </mxCell>
                <mxCell id="33" value="" style="edgeStyle=none;html=1;" edge="1" parent="1" source="20" target="32">
                    <mxGeometry relative="1" as="geometry"/>
                </mxCell>
                <mxCell id="20" value="顶点着色器" style="whiteSpace=wrap;html=1;fillColor=#ffe6cc;strokeColor=#d79b00;rounded=0;" vertex="1" parent="1">
                    <mxGeometry x="210" y="280" width="120" height="60" as="geometry"/>
                </mxCell>
                <mxCell id="22" value="" style="endArrow=classic;html=1;" edge="1" parent="1">
                    <mxGeometry width="50" height="50" relative="1" as="geometry">
                        <mxPoint x="380" y="309.5" as="sourcePoint"/>
                        <mxPoint x="500" y="310" as="targetPoint"/>
                    </mxGeometry>
                </mxCell>
                <mxCell id="23" value="绘制顶点位置" style="edgeLabel;html=1;align=center;verticalAlign=bottom;resizable=0;points=[];" vertex="1" connectable="0" parent="22">
                    <mxGeometry relative="1" as="geometry">
                        <mxPoint as="offset"/>
                    </mxGeometry>
                </mxCell>
                <mxCell id="31" value="" style="group" vertex="1" connectable="0" parent="1">
                    <mxGeometry x="600" y="270" width="80" height="60" as="geometry"/>
                </mxCell>
                <mxCell id="25" value="" style="ellipse;whiteSpace=wrap;html=1;aspect=fixed;fillColor=#60a917;fontColor=#ffffff;strokeColor=none;" vertex="1" parent="31">
                    <mxGeometry x="30" width="10" height="10" as="geometry"/>
                </mxCell>
                <mxCell id="26" value="" style="ellipse;whiteSpace=wrap;html=1;aspect=fixed;fillColor=#60a917;fontColor=#ffffff;strokeColor=none;" vertex="1" parent="31">
                    <mxGeometry y="50" width="10" height="10" as="geometry"/>
                </mxCell>
                <mxCell id="27" value="" style="ellipse;whiteSpace=wrap;html=1;aspect=fixed;fillColor=#60a917;fontColor=#ffffff;strokeColor=none;" vertex="1" parent="31">
                    <mxGeometry x="70" y="50" width="10" height="10" as="geometry"/>
                </mxCell>
                <mxCell id="32" value="图元装配" style="whiteSpace=wrap;html=1;fillColor=#ffe6cc;strokeColor=#d79b00;rounded=0;" vertex="1" parent="1">
                    <mxGeometry x="210" y="420" width="120" height="60" as="geometry"/>
                </mxCell>
                <mxCell id="34" value="" style="endArrow=classic;html=1;" edge="1" parent="1">
                    <mxGeometry width="50" height="50" relative="1" as="geometry">
                        <mxPoint x="380" y="440" as="sourcePoint"/>
                        <mxPoint x="500" y="440.5" as="targetPoint"/>
                    </mxGeometry>
                </mxCell>
                <mxCell id="35" value="将顶点装配成三角形" style="edgeLabel;html=1;align=center;verticalAlign=bottom;resizable=0;points=[];" vertex="1" connectable="0" parent="34">
                    <mxGeometry relative="1" as="geometry">
                        <mxPoint as="offset"/>
                    </mxGeometry>
                </mxCell>
                <mxCell id="41" value="" style="group" vertex="1" connectable="0" parent="1">
                    <mxGeometry x="600" y="420" width="80" height="60" as="geometry"/>
                </mxCell>
                <mxCell id="47" style="edgeStyle=none;html=1;exitX=0;exitY=1;exitDx=0;exitDy=0;entryX=1;entryY=0;entryDx=0;entryDy=0;" edge="1" parent="41" source="42" target="43">
                    <mxGeometry relative="1" as="geometry"/>
                </mxCell>
                <mxCell id="42" value="" style="ellipse;whiteSpace=wrap;html=1;aspect=fixed;fillColor=#0050ef;fontColor=#ffffff;strokeColor=#001DBC;" vertex="1" parent="41">
                    <mxGeometry x="30" width="10" height="10" as="geometry"/>
                </mxCell>
                <mxCell id="43" value="" style="ellipse;whiteSpace=wrap;html=1;aspect=fixed;fillColor=#0050ef;fontColor=#ffffff;strokeColor=#001DBC;" vertex="1" parent="41">
                    <mxGeometry y="50" width="10" height="10" as="geometry"/>
                </mxCell>
                <mxCell id="44" value="" style="ellipse;whiteSpace=wrap;html=1;aspect=fixed;fillColor=#0050ef;fontColor=#ffffff;strokeColor=#001DBC;" vertex="1" parent="41">
                    <mxGeometry x="70" y="50" width="10" height="10" as="geometry"/>
                </mxCell>
            </root>
        </mxGraphModel>
    </diagram>
</mxfile>